<?xml version="1.0" standalone="no"?>
<!DOCTYPE svg PUBLIC "-//W3C//DTD SVG 20010904//EN"
 "http://www.w3.org/TR/2001/REC-SVG-20010904/DTD/svg10.dtd">
<svg version="1.0" xmlns="http://www.w3.org/2000/svg"
 width="128.000000pt" height="122.000000pt" viewBox="0 0 128.000000 122.000000"
 preserveAspectRatio="xMidYMid meet">

<g transform="translate(0.000000,122.000000) scale(0.100000,-0.100000)"
fill="#000000" stroke="none">
<path d="M745 980 c19 -74 23 -85 24 -64 1 12 -6 37 -15 55 -10 22 -13 25 -9
9z"/>
<path d="M502 955 c-7 -14 -12 -31 -12 -38 1 -7 7 3 16 22 17 39 13 54 -4 16z"/>
<path d="M547 880 c-109 -28 -195 -102 -222 -192 -8 -29 -31 -76 -50 -105 -19
-29 -35 -55 -35 -58 0 -3 16 -3 35 1 39 7 40 6 24 -29 -9 -20 -6 -30 15 -62
15 -21 24 -41 21 -43 -3 -3 -42 -11 -88 -18 -70 -10 -12 -11 393 -11 316 -1
453 2 410 8 -36 5 -75 11 -88 14 l-23 6 25 44 c30 51 30 49 12 68 -23 23 -5
38 32 28 18 -5 32 -7 32 -5 0 3 -17 31 -38 62 -21 31 -44 78 -52 105 -29 108
-145 186 -289 193 -42 2 -93 -1 -114 -6z m201 -25 c93 -28 174 -107 188 -184
4 -20 20 -55 36 -79 l30 -44 -45 7 c-38 6 -51 3 -76 -14 -36 -26 -41 -26 -86
0 -36 21 -38 21 -96 5 -55 -15 -63 -15 -118 0 -58 16 -60 16 -96 -5 -45 -26
-50 -26 -86 0 -25 17 -38 20 -76 14 l-45 -7 31 46 c17 24 31 52 31 61 0 51 65
141 125 173 82 43 192 54 283 27z m206 -364 c6 -10 -20 -67 -42 -93 -14 -16
-40 -18 -273 -18 -277 0 -278 0 -295 53 -4 12 -11 25 -16 28 -5 3 -6 13 -2 22
6 15 36 17 314 17 170 0 311 -4 314 -9z"/>
<path d="M545 780 c-3 -5 -2 -10 4 -10 5 0 13 5 16 10 3 6 2 10 -4 10 -5 0
-13 -4 -16 -10z"/>
<path d="M640 773 c0 -5 4 -15 10 -23 11 -18 25 -7 17 15 -6 15 -27 21 -27 8z"/>
<path d="M510 745 c-18 -21 -3 -32 16 -13 10 9 12 18 6 22 -5 3 -15 -1 -22 -9z"/>
<path d="M780 740 c0 -5 9 -10 20 -10 11 0 20 5 20 10 0 6 -9 10 -20 10 -11 0
-20 -4 -20 -10z"/>
<path d="M460 720 c0 -5 5 -10 11 -10 5 0 7 5 4 10 -3 6 -8 10 -11 10 -2 0 -4
-4 -4 -10z"/>
<path d="M725 720 c3 -5 8 -10 11 -10 2 0 4 5 4 10 0 6 -5 10 -11 10 -5 0 -7
-4 -4 -10z"/>
<path d="M515 690 c-3 -5 -1 -10 4 -10 6 0 11 5 11 10 0 6 -2 10 -4 10 -3 0
-8 -4 -11 -10z"/>
<path d="M807 693 c-4 -3 -7 -11 -7 -17 0 -6 5 -5 12 2 6 6 9 14 7 17 -3 3 -9
2 -12 -2z"/>
<path d="M665 680 c-3 -5 -1 -10 4 -10 6 0 11 5 11 10 0 6 -2 10 -4 10 -3 0
-8 -4 -11 -10z"/>
<path d="M572 668 c3 -7 13 -15 22 -16 12 -3 17 1 14 10 -3 7 -13 15 -22 16
-12 3 -17 -1 -14 -10z"/>
<path d="M733 613 c20 -2 54 -2 75 0 20 2 3 4 -38 4 -41 0 -58 -2 -37 -4z"/>
<path d="M915 599 c-19 -9 -19 -9 2 -5 12 2 24 -1 26 -8 2 -6 7 -8 11 -5 13
12 -19 27 -39 18z"/>
<path d="M360 593 c8 -3 24 -10 35 -15 20 -9 20 -9 1 6 -11 9 -27 16 -35 15
-14 0 -14 -1 -1 -6z"/>
<path d="M528 593 c7 -3 16 -2 19 1 4 3 -2 6 -13 5 -11 0 -14 -3 -6 -6z"/>
<path d="M738 593 c7 -3 16 -2 19 1 4 3 -2 6 -13 5 -11 0 -14 -3 -6 -6z"/>
<path d="M318 583 c7 -3 16 -2 19 1 4 3 -2 6 -13 5 -11 0 -14 -3 -6 -6z"/>
<path d="M484 574 c-18 -14 -18 -15 4 -4 12 6 22 13 22 15 0 8 -5 6 -26 -11z"/>
<path d="M770 586 c0 -3 9 -10 20 -16 11 -6 20 -8 20 -6 0 3 -9 10 -20 16 -11
6 -20 8 -20 6z"/>
<path d="M858 570 c-14 -10 -29 -16 -33 -12 -5 4 -5 1 -1 -5 5 -10 15 -7 37 9
27 20 34 28 25 28 -2 0 -15 -9 -28 -20z"/>
<path d="M598 573 c7 -3 16 -2 19 1 4 3 -2 6 -13 5 -11 0 -14 -3 -6 -6z"/>
<path d="M668 573 c7 -3 16 -2 19 1 4 3 -2 6 -13 5 -11 0 -14 -3 -6 -6z"/>
<path d="M420 567 c0 -2 6 -10 14 -16 11 -9 16 -9 22 1 4 7 4 10 -1 6 -4 -4
-14 -3 -22 3 -7 6 -13 9 -13 6z"/>
<path d="M788 473 c28 -2 76 -2 105 0 28 2 5 3 -53 3 -58 0 -81 -1 -52 -3z"/>
<path d="M894 408 l-19 -23 23 19 c21 18 27 26 19 26 -2 0 -12 -10 -23 -22z"/>
<path d="M382 404 c10 -10 20 -16 22 -13 3 3 -5 11 -17 18 -21 13 -21 12 -5
-5z"/>
<path d="M593 220 c0 -36 2 -50 4 -32 2 17 2 47 0 65 -2 17 -4 3 -4 -33z"/>
<path d="M273 215 c0 -33 2 -45 4 -27 2 18 2 45 0 60 -2 15 -4 0 -4 -33z"/>
<path d="M683 215 c0 -33 2 -45 4 -27 2 18 2 45 0 60 -2 15 -4 0 -4 -33z"/>
<path d="M386 232 c17 -11 22 -35 11 -57 -9 -19 -8 -19 9 -3 15 14 16 21 6 43
-6 14 -17 25 -24 25 -9 0 -10 -3 -2 -8z"/>
<path d="M442 228 c-17 -17 -15 -43 5 -59 15 -13 15 -12 4 9 -8 16 -9 27 -1
42 12 23 9 25 -8 8z"/>
<path d="M489 228 c7 -10 11 -29 9 -43 -3 -13 -1 -22 3 -19 15 9 10 51 -8 65
-16 13 -17 12 -4 -3z"/>
<path d="M540 226 c-14 -18 -10 -58 8 -64 11 -3 11 -1 0 17 -10 17 -10 25 0
41 14 23 10 27 -8 6z"/>
<path d="M799 231 c9 -6 12 -20 9 -40 -5 -36 -3 -39 12 -11 12 23 -2 60 -23
60 -8 0 -8 -3 2 -9z"/>
<path d="M852 228 c-17 -17 -15 -43 5 -59 15 -13 15 -12 2 9 -11 18 -11 26 -1
42 14 23 12 26 -6 8z"/>
<path d="M895 181 c0 -33 3 -57 8 -54 9 6 9 113 0 113 -5 0 -8 -27 -8 -59z"/>
<path d="M986 232 c17 -11 22 -35 11 -57 -9 -19 -8 -19 9 -3 15 14 16 21 6 43
-6 14 -17 25 -24 25 -9 0 -10 -3 -2 -8z"/>
<path d="M340 202 c0 -17 4 -34 10 -37 6 -4 7 6 3 27 -8 44 -13 48 -13 10z"/>
<path d="M746 214 c-5 -13 8 -54 17 -54 2 0 1 16 -1 35 -5 39 -7 42 -16 19z"/>
<path d="M940 201 c0 -17 4 -32 8 -35 4 -2 6 11 4 30 -5 42 -12 45 -12 5z"/>
</g>
</svg>
